<?xml version="1.0" standalone="no"?>
<!DOCTYPE svg PUBLIC "-//W3C//DTD SVG 20010904//EN"
 "http://www.w3.org/TR/2001/REC-SVG-20010904/DTD/svg10.dtd">
<svg version="1.0" xmlns="http://www.w3.org/2000/svg"
 width="512.000000pt" height="512.000000pt" viewBox="0 0 512.000000 512.000000"
 preserveAspectRatio="xMidYMid meet">

<g transform="translate(0.000000,512.000000) scale(0.100000,-0.100000)"
fill="#000000" stroke="none">
<path d="M79 5098 c-69 -39 -97 -124 -63 -191 9 -18 536 -553 1172 -1189
l1157 -1158 -1157 -1157 c-636 -637 -1163 -1172 -1172 -1190 -22 -44 -20 -88
5 -133 39 -70 124 -98 192 -64 18 9 553 536 1190 1172 l1157 1157 1158 -1157
c636 -636 1171 -1163 1189 -1172 44 -22 88 -20 133 5 70 39 98 124 64 192 -9
18 -536 553 -1172 1190 l-1157 1157 1157 1158 c636 636 1163 1171 1172 1189
34 68 6 153 -64 192 -45 25 -89 27 -133 5 -18 -9 -553 -536 -1189 -1172
l-1158 -1157 -1157 1157 c-637 636 -1172 1163 -1190 1172 -43 22 -91 20 -134
-6z"/>
</g>
</svg>
